<?xml version="1.0" encoding="UTF-8"?>
<svg viewBox="0 0 744.09448819 1052.3622047" xmlns="http://www.w3.org/2000/svg">
 <path d="m289.52 102.88 20.223 35.069c38.867 67.981 50.539 118.34 49.916 215.28-0.50926 79.329-3.8521 99.693-27.646 170.48-24.115 71.744-26.644 87.628-23.294 147.45l3.5837 67.067-16.383-36.861c-18.704-41.599-20.531-86.629-9.7273-243.44l6.9115-100.09-25.342-51.452c-25.937-52.654-91.05-126.67-80.378-91.385 7.6839 25.402-14.07 81.812-66.299 172.28-64.898 112.41-78.705 156.33-74.235 232.17 5.407 91.726 51.53 175.34 131.83 238.83 26.246 20.751 48.035 31.486 64.507 31.486h24.83l-34.557-37.629c-47.777-51.832-75.348-115.79-80.378-186.1-2.9904-41.794-1.4678-55.682 5.3756-51.452 5.1585 3.1882 9.2154 12.454 9.2153 20.478 0 23.25 45.894 108.61 79.354 147.7 16.868 19.706 52.542 51.869 79.098 71.419 46.075 33.918 50.701 35.581 105.21 35.581 31.417 0 55.73-2.7645 54.012-6.1436-49.101-96.583-51.487-104.5-51.196-169.97 0.26908-60.519 3.4073-71.797 38.653-147.45 43.799-94.005 54.755-135.71 55.036-205.55 0.40777-101.27-47.762-177.4-140.53-222.19-28.443-13.734-62.075-27.512-74.747-30.462l-23.038-5.1196zm341.73 266.73-6.3995 36.861c-9.0535 52.441-20.321 77.365-67.835 151.54-23.087 36.042-46.697 77.646-52.732 92.409-17.084 41.793-7.5941 127.25 20.478 184.05l23.294 47.357 10.239-35.325c7.8766-27.013 25.47-49.917 75.258-97.273 72.206-68.678 82.86-91.117 82.938-175.6 0.05693-61.969-16.437-110.24-55.292-163.06l-29.95-40.957z" fill="#f00"/>
</svg>
